<svg width="184" height="50" viewBox="0 0 184 50" fill="none" xmlns="http://www.w3.org/2000/svg">
<g clip-path="url(#clip0_1_16527)">
<path d="M49.545 20.0273C49.9717 23.5314 46.1279 40.4573 34.5407 45.7337C43.1352 40.9621 54.7058 18.5847 43.1352 7.83975C41.5418 6.82191 39.7605 6.13406 37.8965 5.81689C54.7533 11.6775 40.6157 52.2387 12.7539 46.8106C16.4722 48.8587 20.6492 49.9305 24.8942 49.9259C41.6935 49.9259 52.381 34.3892 49.545 20.0273Z" fill="#4BAF47"/>
<path d="M10.7449 41.8954C10.4062 43.3677 9.18042 43.2749 6.08447 39.2469C-7.54055 21.5677 27.159 -2.1773 43.1351 7.83971C33.7754 -1.89901 17.4859 -2.93257 7.15309 7.33711C3.15972 11.2998 0.636578 16.5055 0 22.0952C1.31806 18.1574 10.6589 0.990522 29.9518 3.88105C18.5692 3.26281 9.40474 9.84391 4.61694 16.1751C-2.3653 25.3811 0.927369 37.4103 7.92826 43.3219C9.97598 44.4945 10.5726 43.2592 10.7449 41.8954Z" fill="#4BAF47"/>
<path d="M9.63324 32.9585C9.93341 34.6165 11.2249 39.8164 10.7454 41.8955C10.573 43.2593 9.97643 44.4945 7.92871 43.322C12.7725 47.2926 12.5951 38.0196 18.754 29.6171C18.9599 29.3366 18.4784 22.4583 18.6983 22.1798C18.8243 22.0209 19.6473 28.4609 19.7781 28.3033C20.895 26.9512 22.1472 25.7168 23.5152 24.6194C23.6616 24.502 24.3542 19.7249 24.5049 19.6096C24.6333 19.5118 24.2189 24.0745 24.3512 23.9781C25.9511 22.802 29.2455 21.0878 31.3773 20.198C30.3109 20.8212 27.2279 22.6951 25.8198 23.9057L30.9428 23.5642C30.9428 23.5642 25.0177 24.6043 24.8568 24.7557C24.2028 25.3697 21.9151 27.8541 19.646 31.4952C19.5055 31.721 26.9595 30.5751 26.8193 30.8091C26.67 31.0578 18.9278 32.6884 18.7803 32.9478C17.157 35.7421 15.9298 38.7485 15.134 41.8805C38.8591 47.829 39.0014 16.1741 39.1018 8.49756C32.8311 17.6342 6.18489 14.3197 9.63324 32.9585Z" fill="#4BAF47"/>
</g>
<path d="M62.1 36V14.4H76.05V17.79H65.715V23.115H74.25V26.505H65.715V32.61H76.05V36H62.1ZM86.6838 36.45C85.0138 36.45 83.5888 36.08 82.4088 35.34C81.2288 34.59 80.3238 33.57 79.6938 32.28C79.0738 30.99 78.7588 29.53 78.7488 27.9C78.7588 26.24 79.0838 24.77 79.7238 23.49C80.3738 22.2 81.2938 21.19 82.4838 20.46C83.6738 19.72 85.0888 19.35 86.7288 19.35C88.5688 19.35 90.1238 19.815 91.3938 20.745C92.6738 21.665 93.5088 22.925 93.8988 24.525L90.2988 25.5C90.0188 24.63 89.5538 23.955 88.9038 23.475C88.2538 22.985 87.5138 22.74 86.6838 22.74C85.7438 22.74 84.9688 22.965 84.3588 23.415C83.7488 23.855 83.2988 24.465 83.0088 25.245C82.7188 26.025 82.5738 26.91 82.5738 27.9C82.5738 29.44 82.9188 30.685 83.6088 31.635C84.2988 32.585 85.3238 33.06 86.6838 33.06C87.6438 33.06 88.3988 32.84 88.9488 32.4C89.5088 31.96 89.9288 31.325 90.2088 30.495L93.8988 31.32C93.3988 32.97 92.5238 34.24 91.2738 35.13C90.0238 36.01 88.4938 36.45 86.6838 36.45ZM103.62 36.45C102 36.45 100.585 36.085 99.3752 35.355C98.1652 34.625 97.2252 33.62 96.5552 32.34C95.8952 31.05 95.5652 29.57 95.5652 27.9C95.5652 26.2 95.9052 24.71 96.5852 23.43C97.2652 22.15 98.2102 21.15 99.4202 20.43C100.63 19.71 102.03 19.35 103.62 19.35C105.25 19.35 106.67 19.715 107.88 20.445C109.09 21.175 110.03 22.185 110.7 23.475C111.37 24.755 111.705 26.23 111.705 27.9C111.705 29.58 111.365 31.065 110.685 32.355C110.015 33.635 109.075 34.64 107.865 35.37C106.655 36.09 105.24 36.45 103.62 36.45ZM103.62 33.06C105.06 33.06 106.13 32.58 106.83 31.62C107.53 30.66 107.88 29.42 107.88 27.9C107.88 26.33 107.525 25.08 106.815 24.15C106.105 23.21 105.04 22.74 103.62 22.74C102.65 22.74 101.85 22.96 101.22 23.4C100.6 23.83 100.14 24.435 99.8402 25.215C99.5402 25.985 99.3902 26.88 99.3902 27.9C99.3902 29.47 99.7452 30.725 100.455 31.665C101.175 32.595 102.23 33.06 103.62 33.06ZM116.42 36V19.545C116.42 19.135 116.435 18.685 116.465 18.195C116.495 17.695 116.58 17.2 116.72 16.71C116.86 16.22 117.115 15.775 117.485 15.375C117.945 14.865 118.44 14.515 118.97 14.325C119.51 14.125 120.04 14.015 120.56 13.995C121.08 13.965 121.535 13.95 121.925 13.95H123.95V16.89H122.075C121.385 16.89 120.87 17.065 120.53 17.415C120.2 17.755 120.035 18.205 120.035 18.765V36H116.42ZM113.81 22.635V19.8H123.95V22.635H113.81ZM127.1 17.34V14.025H130.715V17.34H127.1ZM127.1 36V19.8H130.715V36H127.1ZM146.43 36V28.2C146.43 27.69 146.395 27.125 146.325 26.505C146.255 25.885 146.09 25.29 145.83 24.72C145.58 24.14 145.2 23.665 144.69 23.295C144.19 22.925 143.51 22.74 142.65 22.74C142.19 22.74 141.735 22.815 141.285 22.965C140.835 23.115 140.425 23.375 140.055 23.745C139.695 24.105 139.405 24.605 139.185 25.245C138.965 25.875 138.855 26.685 138.855 27.675L136.71 26.76C136.71 25.38 136.975 24.13 137.505 23.01C138.045 21.89 138.835 21 139.875 20.34C140.915 19.67 142.195 19.335 143.715 19.335C144.915 19.335 145.905 19.535 146.685 19.935C147.465 20.335 148.085 20.845 148.545 21.465C149.005 22.085 149.345 22.745 149.565 23.445C149.785 24.145 149.925 24.81 149.985 25.44C150.055 26.06 150.09 26.565 150.09 26.955V36H146.43ZM135.195 36V19.8H138.42V24.825H138.855V36H135.195ZM161.106 36.45C159.466 36.45 158.026 36.095 156.786 35.385C155.546 34.675 154.576 33.69 153.876 32.43C153.186 31.17 152.841 29.72 152.841 28.08C152.841 26.31 153.181 24.775 153.861 23.475C154.541 22.165 155.486 21.15 156.696 20.43C157.906 19.71 159.306 19.35 160.896 19.35C162.576 19.35 164.001 19.745 165.171 20.535C166.351 21.315 167.226 22.42 167.796 23.85C168.366 25.28 168.581 26.965 168.441 28.905H164.856V27.585C164.846 25.825 164.536 24.54 163.926 23.73C163.316 22.92 162.356 22.515 161.046 22.515C159.566 22.515 158.466 22.975 157.746 23.895C157.026 24.805 156.666 26.14 156.666 27.9C156.666 29.54 157.026 30.81 157.746 31.71C158.466 32.61 159.516 33.06 160.896 33.06C161.786 33.06 162.551 32.865 163.191 32.475C163.841 32.075 164.341 31.5 164.691 30.75L168.261 31.83C167.641 33.29 166.681 34.425 165.381 35.235C164.091 36.045 162.666 36.45 161.106 36.45ZM155.526 28.905V26.175H166.671V28.905H155.526Z" fill="white"/>
<defs>
<clipPath id="clip0_1_16527">
<rect width="50" height="49.8518" fill="white" transform="translate(0 0.0742188)"/>
</clipPath>
</defs>
</svg>
